<svg xmlns="http://www.w3.org/2000/svg" xmlns:xlink="http://www.w3.org/1999/xlink" xmlns:fi="http://pattern.flaticon.com/" x="0" y="0" width="2000" height="1000" viewBox="0 0 2000 1000"><rect x="0px" y="0px" width="100%" height="100%" opacity="1" fill="#bf4868"/><defs><g transform="matrix(0.23749025166034698 0 0 0.23749025166034698 197.20345488125804 57.751360084826615)" id="L1_11"><path d="m319.432 47.703h14.424c18.244 0 33.033-14.789 33.033-33.033v-7.17h-75.33c-8.199 0-15.506 5.17-18.235 12.901l-48.04 136.093h132.551z" fill="#8993da"/><path d="m225.283 156.495-11.823 33.494h156.198l-11.824-33.494z" fill="#f9f48e"/><path d="m374.375 233.168h-12.077l-1.153 15.649 10.528 28.005c10.588-4.189 18.078-14.518 18.078-26.596v-1.682c0-8.492-6.884-15.376-15.376-15.376z" fill="#eaac9d"/><path d="m211.444 276.822 10.528-28.005-1.153-15.649h-12.077c-8.492 0-15.376 6.884-15.376 15.376v1.682c0 12.079 7.49 22.407 18.078 26.596z" fill="#eaac9d"/><path d="m355.499 296.056c-9.028-14.926-25.203-24.045-42.647-24.045h-42.586c-17.444 0-33.619 9.12-42.647 24.046l-3.043 5.031h36.439c10.317 0 20.588-1.371 30.544-4.077 9.956 2.706 20.227 4.077 30.544 4.077h36.439z" fill="#f1f1f4"/><path d="m322.103 301.088c-10.317 0-20.588-1.371-30.544-4.077-9.956 2.706-20.227 4.077-30.544 4.077h-21.406l9.38 27.799c2.328 6.898 10.133 10.245 16.734 7.174l15.856-7.375c6.328-2.943 13.632-2.943 19.96 0l15.856 7.375c6.602 3.07 14.407-.276 16.734-7.174l9.379-27.799z" fill="#ffcbbe"/><path d="m220.82 233.168 1.152 15.649 12.827 38.016c9.253-9.371 21.98-14.822 35.467-14.822h42.586c13.486 0 26.214 5.451 35.467 14.822l12.827-38.016 1.153-15.649z" fill="#ffcbbe"/><path d="m381.109 301.919-19.963-53.103-12.827 38.016c2.715 2.75 5.132 5.837 7.18 9.224l3.043 5.031h-15.033l-9.379 27.799c-2.328 6.899-10.133 10.245-16.734 7.174l-15.856-7.375c-6.328-2.943-13.632-2.943-19.96 0l-15.856 7.375c-6.602 3.07-14.407-.276-16.734-7.174l-9.379-27.799h-15.033l3.043-5.031c2.048-3.387 4.465-6.474 7.18-9.224l-12.827-38.016-19.963 53.103c-4.476 11.907-3.051 25.23 3.842 35.921l85.708 132.935 85.708-132.935c6.891-10.691 8.316-24.014 3.84-35.921z" fill="#dfdde2"/><path d="m381.109 301.919-19.963-53.103-10.633 31.516.597 1.587c1.367 3.636 2.183 7.405 2.462 11.19.674.955 1.318 1.938 1.928 2.947l3.043 5.031h-5.179c-.743 5.892-2.791 11.625-6.096 16.752l-77.157 119.671 21.448 33.265 85.708-132.935c6.893-10.691 8.318-24.014 3.842-35.921z" fill="#c6c1c8"/><path d="m131.66 290.736h-34.442c-6.555 0-11.868 5.314-11.868 11.868 0 6.555 5.314 11.868 11.868 11.868h34.442c6.555 0 11.868-5.314 11.868-11.868s-5.313-11.868-11.868-11.868z" fill="#f9f48e"/><path d="m100.764 314.473h27.35v190.027h-27.35z" fill="#e2bcaf"/><path d="m114.439 192.97c-27.507 0-49.806 22.299-49.806 49.806 0 22.836 15.369 42.082 36.327 47.96h26.958c20.958-5.878 36.327-25.124 36.327-47.96 0-27.507-22.299-49.806-49.806-49.806z" fill="#d3effb"/><path d="m125.19 194.134c5.705 8.102 9.056 17.981 9.056 28.642 0 .634-.012 1.266-.035 1.894-.968 25.871-22.833 46.066-48.722 46.066h-2.025c-3.798 0-7.506-.435-11.073-1.256 6.504 10.219 16.63 17.907 28.57 21.256h26.958c20.958-5.878 36.327-25.124 36.327-47.96-.001-23.816-16.717-43.727-39.056-48.642z" fill="#b1e4f9"/><path d="m163.319 233.168h270.022l-63.683-43.179h-156.198l-52.309 35.468c.92 2.483 1.649 5.059 2.168 7.711z" fill="#8993da"/><path d="m342.785 178.89 13.306 9.022c.929.63 1.744 1.328 2.451 2.078h11.116l-11.823-33.495h-32.913c3.543 9.09 9.767 16.905 17.863 22.395z" fill="#f6e738"/><path d="m369.658 189.989h-11.116c7.872 8.348 2.289 23.179-10.206 23.179h-169.062l-18.124 12.288c.921 2.483 1.65 5.06 2.168 7.712h270.022z" fill="#707dd3"/><path d="m324.304 7.5c-5.008 11.871-16.755 20.203-30.449 20.203-7.041 0-11.966 6.962-9.623 13.601 0 0 40.5 114.706 40.688 115.19h32.913l-38.402-108.791h14.424c18.244 0 33.033-14.789 33.033-33.033v-7.17z" fill="#707dd3"/><path d="m448.604 411.033c-5.035-27.625-29.1-47.701-57.181-47.701h-30.592l-69.273 107.443-69.273-107.443h-30.592c-28.08 0-52.146 20.075-57.181 47.701l-6.399 35.108v58.36h337.527z" fill="#8993da"/><path d="m448.604 411.033c-4.794-26.306-26.845-45.766-53.186-47.564 6.599 7.635 11.27 17.053 13.186 27.564l6.166 33.831c5.659 31.047-18.19 59.636-49.749 59.636h-236.907v20h337.526z" fill="#707dd3"/><path d="m82.328 290.232c-9.353 11.238-3.264 28.377 10.936 31.335v9.079c0 4.142 3.357 7.5 7.5 7.5s7.5-3.358 7.5-7.5v-8.673h12.35v175.027h-12.35v-131.354c0-4.142-3.357-7.5-7.5-7.5s-7.5 3.358-7.5 7.5v138.854c0 4.142 3.357 7.5 7.5 7.5h364.876c4.666 0 8.219-4.23 7.379-8.845l-17.036-93.467c-5.688-31.207-32.839-53.856-64.56-53.856h-16.833l8.979-13.927c8.142-12.627 9.846-28.562 4.559-42.625l-7.104-18.898c10.043-6.577 16.227-17.768 16.227-30.156 0-3.063.005-5.746-1.397-9.558h37.486c3.294 0 6.203-2.149 7.17-5.298s-.234-6.561-2.961-8.409l-61.641-41.795c-16.055-45.479-29.834-84.515-45.877-129.963h3.823c22.35 0 40.533-18.183 40.533-40.533v-7.17c0-4.142-3.357-7.5-7.5-7.5h-75.33c-11.356 0-21.526 7.195-25.308 17.904-25.223 71.454-31.268 88.579-59.042 167.262l-43.029 29.175c-9.892-17.236-28.483-28.871-49.74-28.871-31.599 0-57.307 25.708-57.307 57.306.002 19.32 9.802 36.988 25.197 47.456zm14.891 16.741c-2.408 0-4.368-1.959-4.368-4.368s1.96-4.368 4.368-4.368h34.441c2.408 0 4.368 1.959 4.368 4.368s-1.96 4.368-4.368 4.368c-11.605 0-24.434 0-34.441 0zm273.744 26.803c-2.679 4.155-21.162 32.823-26.483 41.077-2.244 3.481-1.241 8.123 2.239 10.368 3.479 2.24 8.119 1.247 10.368-2.24l7.833-12.15h26.503c24.47 0 45.414 17.473 49.802 41.546l15.425 84.623h-53.413l-7.788-49.125c-.647-4.09-4.478-6.883-8.582-6.233-4.091.649-6.881 4.491-6.232 8.582l7.415 46.776h-192.983l7.416-46.776c.648-4.091-2.142-7.933-6.232-8.582-4.098-.646-7.934 2.143-8.582 6.233l-7.788 49.125h-44.267v-50.179l6.278-34.443c4.388-24.073 25.332-41.546 49.802-41.546h26.503c70.683 109.63 67.252 104.641 68.643 105.773 3.185 2.578 7.833 2.11 10.452-.995.459-.545-2.269 3.632 40.085-62.059 2.244-3.481 1.241-8.123-2.239-10.367-3.481-2.244-8.122-1.243-10.368 2.239l-14.069 21.821 16.543-63.225c1.049-4.007-1.351-8.105-5.357-9.154-4.008-1.048-8.106 1.35-9.154 5.357l-21.175 80.925-21.175-80.925c-1.048-4.007-5.142-6.408-9.154-5.357-4.007 1.049-6.406 5.147-5.357 9.154l16.543 63.224c-4.723-7.325-42.173-65.411-60.261-93.466-5.58-8.656-6.748-19.578-3.124-29.218l12.561-33.413 4.698 13.925c-3.409 4.058-4.955 6.884-8.131 12.136-3.014 4.985.575 11.381 6.418 11.381h9.647l7.658 22.696c3.771 11.176 16.417 16.501 27.004 11.577l15.855-7.375c4.333-2.016 9.302-2.015 13.635 0l15.856 7.375c10.628 4.944 23.243-.433 27.004-11.577l7.657-22.696h9.648c5.827 0 9.44-6.383 6.418-11.381-3.105-5.134-4.741-8.1-8.131-12.135l4.698-13.925 12.561 33.413c3.626 9.639 2.458 20.561-3.123 29.216zm-170.097-83.55v-1.682c0-4.343 3.533-7.876 7.876-7.876h5.11l.519 7.053-6.764 17.992c-4.231-3.906-6.741-9.454-6.741-15.487zm111.986 29.285c12.063 0 23.559 5.252 31.512 14.077-8.447 0-17.576 0-22.261 0-9.649 0-19.265-1.283-28.578-3.814-1.285-.35-2.647-.351-3.934 0-9.313 2.531-18.927 3.814-28.577 3.814-4.599 0-13.796 0-22.261 0 7.953-8.826 19.449-14.077 31.512-14.077zm-51.838 29.077c10.301 0 20.565-1.285 30.544-3.822 17.082 4.342 28.811 3.822 41.504 3.822l-6.04 17.9c-.898 2.663-3.91 3.96-6.465 2.772l-15.857-7.376c-8.352-3.884-17.932-3.884-26.285 0l-15.856 7.375c-2.548 1.185-5.564-.104-6.465-2.772l-6.04-17.901h10.96zm92.722-61.27-9.07 26.881c-9.305-6.199-20.371-9.689-31.814-9.689h-4.16c.208-1.575.15-.567.15-23.843h45.383zm-59.893 14.91c0 1.253-1.014 2.273-2.265 2.283h-21.312c-11.442 0-22.509 3.49-31.814 9.689l-9.07-26.881-.49-6.65h64.95v21.559zm88.409-13.684v1.682c0 6.033-2.51 11.58-6.742 15.487l-6.764-17.992.52-7.053h5.109c4.344 0 7.877 3.533 7.877 7.876zm-101.857-225.646c1.668-4.724 6.155-7.898 11.163-7.898h67.828c-.177 13.928-11.563 25.203-25.531 25.203h-9.118l-3.049-8.638c-1.378-3.906-5.663-5.956-9.568-4.576-3.906 1.379-5.955 5.663-4.576 9.569 7.938 22.488 30.378 86.058 39.689 112.436h-10.338c-4.143 0-7.5 3.358-7.5 7.5s3.357 7.5 7.5 7.5h15.633l6.529 18.494h-134.997l6.529-18.494h71.306c4.143 0 7.5-3.358 7.5-7.5s-3.357-7.5-7.5-7.5h-66.012zm-64.632 174.591h151.593l41.56 28.179c-79.022 0-189.612 0-234.712 0zm-28.5 43.179c-1.438 3.909-1.397 6.788-1.397 9.558 0 12.388 6.184 23.58 16.227 30.156l-7.104 18.898c-5.287 14.062-3.583 29.997 4.558 42.624l8.979 13.927h-16.832c-23.483 0-44.46 12.414-56.08 31.522v-65.787c14.201-2.957 20.289-20.097 10.936-31.335 16.139-10.974 25.883-29.632 25.156-49.564h15.557zm-72.824-40.198c23.327 0 42.306 18.979 42.306 42.306 0 18.561-12.246 35.056-29.902 40.46h-24.808c-17.656-5.404-29.902-21.9-29.902-40.46 0-23.327 18.978-42.306 42.306-42.306z"/><path d="m114.439 225.47c9.542 0 17.306 7.764 17.306 17.306 0 4.142 3.357 7.5 7.5 7.5s7.5-3.358 7.5-7.5c0-17.813-14.492-32.306-32.306-32.306-4.143 0-7.5 3.358-7.5 7.5s3.358 7.5 7.5 7.5z"/><path d="m114.439 170.47c4.143 0 7.5-3.358 7.5-7.5v-16.476c0-4.142-3.357-7.5-7.5-7.5s-7.5 3.358-7.5 7.5v16.476c0 4.142 3.358 7.5 7.5 7.5z"/><path d="m52.705 191.648c2.927 2.929 7.677 2.929 10.606 0s2.929-7.678-.001-10.606l-11.65-11.65c-2.928-2.93-7.677-2.929-10.606 0s-2.929 7.678.001 10.606z"/><path d="m176.175 191.648 11.649-11.65c2.929-2.929 2.929-7.678-.001-10.606-2.928-2.93-7.677-2.929-10.606 0l-11.649 11.65c-2.929 2.929-2.929 7.678.001 10.606 2.926 2.929 7.676 2.929 10.606 0z"/></g><g transform="matrix(0.08922113941424753 0.022877214894541375 -0.022877214894541375 0.08922113941424753 75.01595532295522 206.30282129695004)" id="L1_13"><g fill="#ffda8f"><path d="m74 243s131.517-39 151-140c0 0 44 138.725 165 138 0 0-156 24-165 182 0 0 8-162-151-180z"/><path d="m15 88.911s46.614-13.823 53.519-49.62c0 0 15.595 49.168 58.481 48.911 0 0-55.291 8.506-58.481 64.506 0 .001 2.835-57.417-53.519-63.797z"/><path d="m335 391.57s65.343-19.377 75.022-69.557c0 0 21.861 68.923 81.978 68.563 0 0-77.506 11.924-81.978 90.424 0 0 3.975-80.487-75.022-89.43z"/></g><g><path d="m322 401c44.112 0 80 35.888 80 80 0 5.522 4.478 10 10 10s10-4.478 10-10c0-44.112 35.888-80 80-80 5.522 0 10-4.478 10-10s-4.478-10-10-10c-44.112 0-80-35.888-80-80 0-5.522-4.478-10-10-10s-10 4.478-10 10c0 44.112-35.888 80-80 80-5.522 0-10 4.478-10 10s4.478 10 10 10zm90-56.429c9.816 20.194 26.234 36.612 46.429 46.429-20.194 9.816-36.612 26.234-46.429 46.429-9.816-20.194-26.234-36.612-46.429-46.429 20.195-9.816 36.613-26.234 46.429-46.429z"/><path d="m10 101c27.57 0 50 22.43 50 50 0 5.522 4.477 10 10 10s10-4.478 10-10c0-27.57 22.43-50 50-50 5.523 0 10-4.478 10-10s-4.477-10-10-10c-27.57 0-50-22.43-50-50 0-5.522-4.477-10-10-10s-10 4.478-10 10c0 27.57-22.43 50-50 50-5.523 0-10 4.478-10 10s4.477 10 10 10zm60-33.976c5.913 9.81 14.166 18.064 23.975 23.976-9.81 5.912-18.063 14.166-23.975 23.976-5.913-9.81-14.166-18.064-23.975-23.976 9.809-5.912 18.062-14.166 23.975-23.976z"/><circle cx="279" cy="294" r="10"/><path d="m305.678 271.194c2.817 4.749 8.954 6.315 13.703 3.496 26.118-15.498 56.07-23.69 86.619-23.69 5.522 0 10-4.478 10-10s-4.478-10-10-10c-93.738 0-170-76.262-170-170 0-5.522-4.477-10-10-10s-10 4.478-10 10c0 93.738-76.262 170-170 170-5.523 0-10 4.478-10 10s4.477 10 10 10c93.738 0 170 76.262 170 170 0 5.522 4.477 10 10 10s10-4.478 10-10c0-30.549 8.192-60.501 23.69-86.619 2.818-4.75 1.253-10.885-3.496-13.703-4.753-2.821-10.886-1.253-13.703 3.496-6.764 11.398-12.282 23.445-16.498 35.931-18.953-55.876-63.24-100.157-119.118-119.105 55.884-18.95 100.175-63.241 119.125-119.125 18.948 55.878 63.229 100.165 119.104 119.118-12.485 4.216-24.532 9.734-35.931 16.498-4.748 2.819-6.314 8.953-3.495 13.703z"/></g></g><g transform="matrix(0.20078132749889532 0.2007813274988953 -0.2007813274988953 0.20078132749889532 150.97896431137636 -10.506643642587115)" id="L1_14"><path d="M115.321,148c0,0,93.6-1.2,93.6,100c0-101.6,93.6-100,93.6-100s-93.6,1.2-93.6-100  C208.521,149.2,115.321,148,115.321,148z" fill="#3bb7d6"/><path d="M219.321,98.8c-6.4-13.2-10.4-29.6-10.4-50.8c0,98-87.6,100-93.2,100c2.8,0,22.8,0.4,43.2,10.4  C180.521,152,208.121,136.4,219.321,98.8z" fill="#7ccbd8"/><path d="M9.321,234.8c0,0,66.8-0.8,66.8,71.6c0-72.4,66.8-71.6,66.8-71.6s-66.8,0.8-66.8-71.6  C76.121,235.6,9.321,234.8,9.321,234.8z" fill="#3bb7d6"/><path d="M85.321,202.8c-5.6-10-9.2-22.8-9.2-39.6c0,70-62.4,71.6-66.4,71.6c2,0,18.8,0.4,34.8,9.6  C59.321,239.2,77.721,228,85.321,202.8z" fill="#7ccbd8"/><path d="M53.721,62.4c0,0,53.2-0.8,53.2,57.2c0-58,53.2-57.2,53.2-57.2s-53.2,0.8-53.2-57.2  C106.921,62.8,53.721,62.4,53.721,62.4z" fill="#3bb7d6"/><path d="M115.721,38.8c-5.2-8-8.4-19.2-8.4-33.6c0,56-50,57.2-53.2,57.2c1.6,0,16.4,0.4,29.6,8.8  C95.321,67.2,109.321,58.4,115.721,38.8z" fill="#7ccbd8"/><g><path d="M214.121,48c0-2.8-2.4-5.2-5.2-5.2c-2.8,0-5.2,2.4-5.2,5.2c-0.4,91.6-79.2,94.8-88,94.8l0,0l0,0   c-1.2,0-2.4,0.4-3.2,1.2c-0.8,0.4-1.2,0.8-1.6,1.6c-0.8,1.6-0.8,3.6,0,5.2c0.8,1.6,2.8,2.8,4.4,2.8c0,0,0,0,0.4,0   c9.2,0,87.6,3.2,87.6,94.8c0,2.8,2.4,5.2,5.2,5.2c2.8,0,5.2-2.4,5.2-5.2c0-91.6,78.8-94.8,87.6-94.8l0,0l0,0c2,0,3.6-1.2,4.8-2.8   c0.8-1.6,0.8-3.6-0.4-5.2c-0.8-1.6-2.8-2.4-4.4-2.8l0,0l0,0l0,0l0,0C292.921,142.8,214.121,139.6,214.121,48z M208.521,209.2   c-11.6-38-40-54.4-62.4-61.2c22.4-7.2,50.8-23.6,62.4-61.2c11.6,38,40,54.4,62.4,61.2C248.521,155.2,220.521,171.6,208.521,209.2z" fill="#001a2d"/><path d="M112.521,119.6c0-50,42.8-52,48-52h0.4c2.8,0,5.2-2.4,5.2-5.2s-2.4-5.2-5.2-5.2l0,0l0,0   c-4.8,0-48-1.6-48-52c0-2.8-2.4-5.2-5.2-5.2s-5.2,2.4-5.2,5.2c0,50-42.8,52-48,52l0,0l0,0c-0.4,0-0.4,0-0.4,0   c-2.8,0.4-4.8,2.4-4.8,5.2s2.4,5.2,5.2,5.2l0,0c4.8,0,48,1.6,48,52c0,2.8,2.4,5.2,5.2,5.2   C110.121,124.8,112.521,122.4,112.521,119.6z M78.121,62.4c11.2-4.8,22.4-13.6,28.8-28.4c6.4,15.2,18,23.6,28.8,28.4   c-11.2,4.8-22.4,13.6-28.8,28.4C100.521,75.2,88.921,66.8,78.121,62.4z" fill="#001a2d"/><path d="M144.121,229.6c-0.4,0-0.8,0-1.2,0l0,0l0,0c-6.4,0-61.2-2.4-61.2-66c0-2.8-2.4-5.2-5.2-5.2   s-5.2,2.4-5.2,5.2c0,64-54.8,66-61.2,66l0,0l0,0c-0.4,0-0.8,0-1.2,0c-2.4,0.4-4.4,2.8-4.4,5.2c0,2.8,2.4,5.2,5.2,5.2l0,0   c6.4,0,61.2,2,61.2,66c0,2.8,2.4,5.2,5.2,5.2s5.2-2.4,5.2-5.2c0-64,54.8-66,61.2-66l0,0c2.8,0,5.2-2.4,5.2-5.2   C148.121,232,146.521,230,144.121,229.6z M76.121,273.6c-8.4-22.4-25.2-33.6-39.6-38.8c14.8-5.6,31.2-16.4,39.6-38.8l0,0l0,0   c8.4,22.4,25.2,33.6,39.6,38.8C101.321,240,84.521,251.2,76.121,273.6z" fill="#001a2d"/></g></g><g transform="matrix(0.14932425712423728 0.02212211097612886 -0.02212211097612886 0.14932425712423728 62.45475684101805 238.12243310573766)" id="L1_16"><path d="M503.23,227.856c0,62.652-49.74,112.342-120.798,112.342s-131.964,0-109.632,71.291  s-71.058,92.903-71.058,92.903c2.832-7.826,4.69-15.389,5.614-22.627c0.142-1.015,0.254-2.01,0.345-3.005c0-0.02,0-0.041,0.01-0.061  c4.04-43.132-25.449-73.687-79.057-73.687c-81.929,0-97.45-92.903-24.363-123.143c43.294-17.927,98.455-8.547,139.181-12.313  c4.365-0.396,8.557-0.954,12.557-1.705c0.091-0.01,0.183-0.02,0.264-0.041c1.898-0.365,3.746-0.772,5.542-1.228  c18.688-4.751,32.189-14.953,36.635-36.564c12.222-59.445-75.605-46.999-100.455-42.35c-0.091,0.01-0.173,0.03-0.244,0.051  c-2.355,0.436-4.121,0.812-5.147,1.036c-0.061,0.02-0.132,0.03-0.193,0.041c-0.183,0.03-0.345,0.071-0.467,0.102  c-0.244,0.051-0.376,0.081-0.376,0.081c-0.599,0.112-1.188,0.213-1.797,0.315C-26.646,227.004-24.373,73.266,68.763,26.947  c10.182-5.065,20.749-8.963,31.478-11.887c87.665-23.936,186.77,16.993,186.77,16.993s-126.96-2.375-142.836,57.546  c-12.466,47.04,75.839,23.764,157.047,23.764C453.489,113.362,503.23,165.204,503.23,227.856z" fill="#cf8bfc"/><g><path d="M356.333,208.813c-10.415,32.291-45,46.634-94.496,57.77c18.688-4.751,32.189-14.953,36.635-36.564   c12.222-59.445-75.605-46.999-100.455-42.35C229.973,181.374,369.834,156.626,356.333,208.813z" fill="#9966cc"/><path d="M207.711,478.7c4.04-43.132-25.449-73.687-79.057-73.687c-81.929,0-97.45-92.903-24.363-123.143   c43.294-17.927,98.455-8.547,139.181-12.313l0.183,0.873c-172.568,18.993-90.345,110.951-66.49,126.685   C200.514,412.515,212.675,432.288,207.711,478.7z" fill="#9966cc"/><path d="M189.795,189.293C-26.646,227.004-24.373,73.266,68.764,26.947   c10.182-5.065,20.749-8.963,31.478-11.887C-7.684,89.689,116.738,200.885,189.795,189.293z" fill="#9966cc"/></g><g><path d="M460.921,95.031l18.124-3.675c8.556-1.735,8.556-13.963,0-15.698l-18.124-3.675   c-17.86-3.621-31.819-17.58-35.439-35.439l-3.675-18.124c-1.735-8.556-13.963-8.556-15.698,0l-3.675,18.124   c-3.621,17.86-17.58,31.819-35.439,35.439l-18.124,3.675c-8.556,1.735-8.556,13.963,0,15.698l18.124,3.675   c17.86,3.621,31.819,17.58,35.439,35.439l3.675,18.124c1.735,8.556,13.963,8.556,15.698,0l3.675-18.124   C429.102,112.61,443.061,98.652,460.921,95.031z" fill="#f9d366"/><path d="M233.505,321.49l18.124-3.675c8.556-1.735,8.556-13.963,0-15.698l-18.124-3.675   c-17.86-3.621-31.819-17.58-35.439-35.439l-3.675-18.124c-1.735-8.556-13.963-8.556-15.698,0l-3.675,18.124   c-3.621,17.86-17.58,31.819-35.439,35.439l-18.124,3.675c-8.556,1.735-8.556,13.963,0,15.698l18.124,3.675   c17.86,3.621,31.819,17.58,35.439,35.439l3.675,18.124c1.735,8.556,13.963,8.556,15.698,0l3.675-18.124   C201.686,339.07,215.645,325.111,233.505,321.49z" fill="#f9d366"/></g><path d="M375.62,292.052c43.65-5.076,73.088-48.725,73.088-80.194c0,0,15.734,36.036-13.196,64.967   S375.62,292.052,375.62,292.052z" fill="#9966cc"/><path d="M387.802,387.463c-4.206,0-7.613,3.409-7.613,7.613v20.175c0,4.205,3.408,7.613,7.613,7.613s7.613-3.409,7.613-7.613  v-20.175C395.415,390.872,392.006,387.463,387.802,387.463z"/><path d="M387.802,441.78c-4.206,0-7.613,3.409-7.613,7.613v20.175c0,4.205,3.408,7.613,7.613,7.613s7.613-3.409,7.613-7.613v-20.175  C395.415,445.189,392.006,441.78,387.802,441.78z"/><path d="M425.047,424.709h-20.175c-4.206,0-7.613,3.409-7.613,7.613c0,4.205,3.408,7.613,7.613,7.613h20.175  c4.206,0,7.613-3.409,7.613-7.613C432.66,428.118,429.253,424.709,425.047,424.709z"/><path d="M370.73,424.709h-20.174c-4.206,0-7.613,3.409-7.613,7.613c0,4.205,3.408,7.613,7.613,7.613h20.174  c4.206,0,7.613-3.409,7.613-7.613C378.343,428.118,374.935,424.709,370.73,424.709z"/><path d="M192.927,196.468c0.127-0.022,0.256-0.049,0.382-0.078c19.321-4.467,73.549-12.074,92.205,6.132  c6.073,5.926,7.872,14.42,5.499,25.964c-4.92,23.933-22.021,33.24-63.097,34.335c-4.204,0.113-7.52,3.611-7.407,7.814  c0.111,4.134,3.496,7.41,7.607,7.41c0.069,0,0.138-0.001,0.207-0.002c12.292-0.328,24.398-1.297,35.314-4.047  c47.025-10.449,92.13-24.682,100.153-63.648c0.849-4.118-1.803-8.144-5.921-8.992c-4.117-0.85-8.143,1.803-8.992,5.921  c-2.835,13.768-12.084,24.246-29.11,32.976c-5.973,3.063-12.732,5.778-19.897,8.223c2.654-4.824,4.721-10.411,6.06-16.924  c3.452-16.799,0.159-30.236-9.79-39.937C283.87,179.65,262,174.393,231.15,175.993c-21.041,1.09-38.874,5.018-41.075,5.518  c-24.308,4.321-45.164,6.146-63.085,6.145c-72.656-0.004-96.784-30.019-104.334-45.304c-6.846-13.86-8.104-29.957-3.637-46.548  c4.418-16.41,14.406-32.364,28.127-44.922c3.101-2.838,3.314-7.655,0.475-10.756s-7.656-3.314-10.756-0.475  C21.036,54.138,9.476,72.674,4.315,91.845c-5.443,20.222-3.823,40.018,4.689,57.249c10.678,21.62,31.562,37.588,60.393,46.18  C101.733,204.912,143.295,205.312,192.927,196.468z"/><path d="M72.154,33.762C118.472,10.726,173.4,13.313,211.322,19.537c12.569,2.064,24.157,4.652,34.219,7.266  c-40.575,4.769-97.628,18.96-108.725,60.844c-1.47,5.55-1.799,10.575-1.014,15.055c-13.555-6.005-24.617-17.444-24.617-40.064  c0-4.205-3.409-7.613-7.613-7.613s-7.613,3.409-7.613,7.613c0,44.766,34.565,58.108,63.654,61.403  c7.976,1.956,17.635,2.686,28.64,2.686c14.4,0,31.094-1.244,49.287-2.598c20.833-1.551,42.377-3.156,63.684-3.156  c23.548,0,45.345,1.276,64.782,3.793c4.155,0.533,7.987-2.403,8.527-6.573c0.54-4.17-2.402-7.988-6.573-8.528  c-20.083-2.601-42.537-3.919-66.737-3.919c-21.874,0-43.704,1.626-64.816,3.198c-28.221,2.101-57.16,4.25-73.166,0.4  c-0.447-0.161-0.913-0.28-1.397-0.356c-4.232-1.17-7.444-2.815-9.318-5.072c-0.801-0.964-3.237-3.898-0.993-12.37  c7.187-27.126,42.741-39.815,71.303-45.683c32.533-6.683,63.731-6.197,64.032-6.196c3.642,0.066,6.851-2.476,7.596-6.061  c0.745-3.583-1.164-7.191-4.548-8.588c-1.307-0.54-32.517-13.304-75.769-20.448c-40.237-6.643-98.712-9.339-148.775,15.561  c-3.765,1.873-5.299,6.443-3.426,10.207C63.819,34.101,68.39,35.635,72.154,33.762z"/><path d="M497.442,175.676c-9.686-16.583-24.623-30.442-44.396-41.192c-3.695-2.009-8.317-0.641-10.325,3.052  c-2.009,3.694-0.643,8.317,3.052,10.325c33.071,17.98,49.841,44.895,49.841,79.999c0,39.206-20.845,73.382-55.761,91.422  c-3.737,1.93-5.199,6.523-3.27,10.258c1.352,2.618,4.013,4.12,6.77,4.12c1.177,0,2.371-0.274,3.489-0.851  c40.074-20.704,63.998-59.937,63.998-104.949C510.841,208.455,506.333,190.898,497.442,175.676z"/><path d="M293.509,357.033c0.027-0.012,0.053-0.027,0.08-0.04c19.621-9.176,53.457-9.181,88.843-9.181  c11.77,0,23.28-1.31,34.211-3.894c4.092-0.967,6.625-5.068,5.657-9.16c-0.966-4.092-5.073-6.628-9.16-5.657  c-9.785,2.313-20.115,3.486-30.708,3.486c-38.272,0-72.634,0.002-95.239,10.542c-24.12,8.072-52.532,25.901-60.939,52.174  c-1.282,4.005,0.926,8.29,4.93,9.571c0.771,0.247,1.553,0.364,2.323,0.364c3.222,0,6.214-2.062,7.249-5.295  c2.636-8.237,9.364-18.108,21.034-26.928c-2.551,11.131-1.314,24.603,3.745,40.753c4.985,15.913,3.903,30.303-3.217,42.768  c-11.128,19.483-34.49,30.813-49.23,36.296c5.507-24.022,2.193-46.009-9.729-62.994c-14.683-20.92-41.214-32.441-74.705-32.441  c-17.323,0-32.43-4.551-43.686-13.161c-9.898-7.572-16.651-18.287-19.013-30.171c-2.404-12.094-0.209-24.892,6.18-36.04  c7.18-12.527,19.306-22.597,35.067-29.12c11.475-4.749,24.813-7.844,40.779-9.461c4.183-0.423,7.232-4.159,6.807-8.342  c-0.423-4.184-4.162-7.228-8.342-6.807c-17.461,1.769-32.202,5.217-45.067,10.54c-42.572,17.617-55.968,53.978-50.359,82.198  c3.085,15.519,11.855,29.475,24.697,39.297c13.935,10.66,32.241,16.293,52.937,16.293c28.386,0,50.491,9.22,62.241,25.962  c11.294,16.092,12.604,38.542,3.686,63.214c-0.948,2.622-0.386,5.554,1.465,7.64c1.463,1.648,3.545,2.561,5.695,2.561  c0.57,0,1.146-0.064,1.716-0.196c2.106-0.487,51.829-12.342,72.048-47.659c9.335-16.306,10.869-34.787,4.559-54.931  c-6.1-19.47-5.807-33.368,0.892-42.486C283.922,362.696,288.195,359.529,293.509,357.033z"/><path d="M462.433,102.493l18.124-3.675c7.371-1.494,12.517-7.79,12.517-15.311c0-7.521-5.147-13.817-12.517-15.311l-18.124-3.675  c-14.895-3.02-26.471-14.595-29.491-29.491l-3.675-18.124c-1.495-7.371-7.791-12.518-15.311-12.518s-13.815,5.148-15.31,12.518  l-3.675,18.124c-3.02,14.895-14.595,26.471-29.491,29.49l-18.124,3.675c-7.371,1.494-12.517,7.79-12.517,15.311  c0,7.52,5.147,13.816,12.517,15.311l18.124,3.675c14.896,3.02,26.471,14.595,29.491,29.491l3.675,18.124  c1.495,7.371,7.791,12.517,15.31,12.517c7.52,0,13.816-5.147,15.311-12.517l3.675-18.124  C435.962,117.089,447.539,105.513,462.433,102.493z M418.019,128.958l-3.675,18.124c-0.033,0.162-0.072,0.248-0.064,0.248  c-0.129,0.091-0.516,0.091-0.622,0.024c-0.013-0.019-0.054-0.106-0.087-0.272l-3.675-18.124  c-4.238-20.904-20.484-37.15-41.388-41.389l-18.124-3.675c-0.148-0.029-0.232-0.066-0.246-0.066c-0.002,0-0.002,0-0.002,0.002  c-0.092-0.13-0.092-0.517-0.023-0.623c0.019-0.013,0.106-0.054,0.272-0.087l18.124-3.675c20.905-4.238,37.151-20.484,41.388-41.388  l3.675-18.124c0.038-0.186,0.064-0.25,0.064-0.249c0.13-0.092,0.518-0.091,0.621-0.023c0.014,0.019,0.055,0.106,0.088,0.272  l3.675,18.124c4.239,20.904,20.485,37.151,41.388,41.388l18.124,3.675c0.172,0.035,0.246,0.075,0.248,0.064  c0.092,0.13,0.092,0.517,0.023,0.623c-0.019,0.013-0.106,0.054-0.272,0.087l-18.124,3.675  C438.504,91.808,422.259,108.054,418.019,128.958z"/><path d="M235.018,290.982c-14.895-3.02-26.471-14.596-29.491-29.491l-3.675-18.124c-1.494-7.371-7.79-12.518-15.311-12.518  c-7.521,0-13.817,5.148-15.311,12.518l-3.675,18.124c-3.02,14.895-14.596,26.471-29.491,29.491l-18.124,3.675  c-7.371,1.494-12.518,7.79-12.518,15.311c0,7.52,5.148,13.816,12.518,15.311l18.124,3.675c14.895,3.02,26.471,14.596,29.491,29.491  l3.675,18.124c1.494,7.371,7.79,12.518,15.311,12.518c7.52,0,13.816-5.148,15.311-12.518l3.675-18.124  c3.02-14.895,14.596-26.471,29.491-29.491l18.124-3.675c7.37-1.494,12.518-7.79,12.518-15.311s-5.148-13.817-12.518-15.311  L235.018,290.982z M250.389,310.266c-0.019,0.013-0.106,0.054-0.272,0.087l-18.124,3.675c-20.904,4.239-37.15,20.485-41.389,41.389  l-3.675,18.124c-0.032,0.162-0.072,0.249-0.065,0.249l0,0c-0.129,0.092-0.516,0.093-0.622,0.023  c-0.013-0.019-0.054-0.106-0.087-0.272l-3.675-18.124c-4.239-20.904-20.485-37.15-41.389-41.389l-18.124-3.675  c-0.148-0.03-0.233-0.066-0.247-0.066c-0.002,0-0.002,0-0.002,0.001c-0.091-0.13-0.091-0.516-0.023-0.622  c0.019-0.013,0.106-0.054,0.272-0.087l18.124-3.675c20.904-4.239,37.15-20.485,41.389-41.389l3.675-18.124  c0.032-0.162,0.072-0.249,0.065-0.249l0,0c0.131-0.092,0.517-0.091,0.622-0.023c0.013,0.019,0.054,0.106,0.087,0.272l3.675,18.124  c4.239,20.904,20.485,37.15,41.389,41.389l18.124,3.675c0.172,0.035,0.253,0.071,0.249,0.064  C250.456,309.774,250.456,310.16,250.389,310.266z"/></g><g transform="matrix(0.1095314947511297 -0.020176854006398078 0.020176854006398078 0.1095314947511297 241.01382577943815 245.94977927899546)" id="L1_17"><g><path d="m96.256 108.093c0-6.606-6.812-12.461-17.309-16.1-4.243-1.471-7.6-4.828-9.071-9.071-3.639-10.497-9.494-17.309-16.1-17.309s-12.461 6.812-16.1 17.309c-1.471 4.243-4.828 7.6-9.071 9.071-10.497 3.639-17.309 9.494-17.309 16.1s6.812 12.461 17.309 16.1c4.243 1.471 7.6 4.828 9.071 9.071 3.639 10.497 9.494 17.309 16.1 17.309s12.461-6.812 16.1-17.309c1.471-4.243 4.828-7.6 9.071-9.071 10.497-3.638 17.309-9.494 17.309-16.1z" fill="#ffc277"/><path d="m461.131 271.55c0-6.606-6.812-12.461-17.309-16.1-4.243-1.471-7.6-4.828-9.071-9.071-3.639-10.497-9.494-17.309-16.1-17.309s-12.461 6.812-16.1 17.309c-1.471 4.243-4.828 7.6-9.071 9.071-10.497 3.639-17.309 9.494-17.309 16.1s6.812 12.461 17.309 16.1c4.243 1.471 7.6 4.828 9.071 9.071 3.639 10.497 9.494 17.309 16.1 17.309s12.461-6.812 16.1-17.309c1.471-4.243 4.828-7.6 9.071-9.071 10.497-3.638 17.309-9.494 17.309-16.1z" fill="#ffc277"/><path d="m438.354 28.334-181.209 234.78c-10.966 14.208-23.764 26.903-38.059 37.755l-14.241 10.81c-12.682 9.627-24.19 20.708-34.289 33.017l-60.279 73.472-20.994 55.412c-5.446 14.373-24.395 17.487-34.154 5.613l-16.199-19.71c-6.061-7.375-6.065-18.005-.011-25.384l36.52-44.513 60.459-73.691c10.398-12.674 22.29-24.046 35.417-33.867l16.523-12.363c11.51-8.612 22.075-18.419 31.518-29.257l199.046-228.442c4.586-5.263 12.524-5.927 17.921-1.5 5.396 4.428 6.296 12.343 2.031 17.868z" fill="#d09596"/><path d="m436.323 10.467c-1.957-1.605-4.249-2.532-6.593-2.822.802 3.615.055 7.54-2.376 10.69l-181.209 234.78c-10.966 14.208-23.764 26.904-38.059 37.755l-14.241 10.81c-12.682 9.627-24.19 20.708-34.289 33.017l-60.279 73.472-20.995 55.413c-4.263 11.252-16.801 15.602-26.728 11.264l3.574 4.348c9.759 11.875 28.708 8.761 34.154-5.612l20.995-55.413 60.279-73.472c10.099-12.309 21.607-23.391 34.289-33.017l14.241-10.81c14.296-10.852 27.093-23.547 38.059-37.755l181.209-234.78c4.264-5.526 3.365-13.441-2.031-17.868z" fill="#bb696a"/><path d="m188.419 325.605-34.87-28.609c-6.269 5.918-12.172 12.222-17.65 18.899l-60.459 73.691 34.838 28.582 60.279-73.472c5.537-6.75 11.514-13.116 17.862-19.091z" fill="#ffc277"/><g fill="#ff905b"><path d="m107.114 345.687h30v45.062h-30z" transform="matrix(0.634 -0.773 0.773 0.634 -240.012 229.073)"/><path d="m135.898 315.895-2.66 3.242 34.838 28.582 2.48-3.023c5.539-6.751 11.515-13.117 17.863-19.092l-34.87-28.609c-6.27 5.919-12.173 12.223-17.651 18.9z"/></g></g><g><path d="m148.351 208.337-3.107 14.674c4.866 1.031 10.097 2.001 15.545 2.882l2.395-14.809c-5.212-.841-10.201-1.766-14.833-2.747z"/><path d="m30.589 135.722c4.925 14.205 13.376 22.352 23.187 22.352s18.262-8.146 23.188-22.353c.715-2.065 2.375-3.726 4.439-4.441 14.206-4.924 22.354-13.375 22.354-23.187s-8.147-18.262-22.354-23.186c-2.064-.716-3.724-2.376-4.44-4.442-4.926-14.205-13.377-22.352-23.188-22.352s-18.262 8.147-23.186 22.353c-.717 2.065-2.376 3.726-4.44 4.441-14.207 4.925-22.354 13.375-22.354 23.186s8.147 18.263 22.354 23.187c2.064.716 3.724 2.376 4.44 4.442zm-11.794-27.629c0-1.914 3.267-5.894 12.266-9.014 6.371-2.208 11.492-7.33 13.7-13.7 3.121-9 7.101-12.267 9.015-12.267s5.894 3.267 9.015 12.266c2.208 6.371 7.329 11.493 13.7 13.701 8.999 3.12 12.266 7.1 12.266 9.014s-3.267 5.895-12.266 9.015c-6.371 2.208-11.493 7.33-13.7 13.7-3.12 8.999-7.101 12.266-9.015 12.266s-5.895-3.267-9.014-12.265c-2.208-6.371-7.33-11.493-13.701-13.701-9-3.12-12.266-7.101-12.266-9.015z"/><path d="m446.279 248.365c-2.065-.717-3.727-2.377-4.442-4.442-4.925-14.205-13.376-22.353-23.187-22.353s-18.262 8.147-23.187 22.354c-.716 2.064-2.377 3.725-4.44 4.441-14.206 4.924-22.354 13.374-22.354 23.186s8.147 18.262 22.352 23.186c2.065.717 3.727 2.377 4.442 4.442 4.925 14.205 13.376 22.353 23.187 22.353s18.262-8.147 23.187-22.354c.716-2.064 2.377-3.725 4.44-4.441 14.206-4.924 22.354-13.374 22.354-23.186s-8.148-18.262-22.352-23.186zm-4.916 32.199c-6.37 2.209-11.491 7.331-13.698 13.7-3.12 9-7.101 12.267-9.015 12.267s-5.895-3.267-9.015-12.266c-2.207-6.37-7.328-11.492-13.7-13.701-8.999-3.12-12.266-7.1-12.266-9.014s3.267-5.894 12.268-9.014c6.37-2.209 11.491-7.331 13.698-13.7 3.12-9 7.101-12.267 9.015-12.267s5.895 3.267 9.015 12.266c2.207 6.37 7.328 11.492 13.7 13.701 8.999 3.12 12.266 7.1 12.266 9.014s-3.267 5.894-12.268 9.014z"/><path d="m230.289 350.877h14.973v28h-14.973z"/><path d="m252.838 386.432h28v14.973h-28z"/><path d="m230.289 409.335h14.973v28h-14.973z"/><path d="m194.713 386.432h28v14.973h-28z"/><path d="m13.275 262.471h15v14.973h-15z"/><path d="m357.65 397.064h15v14.973h-15z"/><path d="m445.921 134.533h15v14.973h-15z"/><path d="m446.366 29.625c4.266-8.391 2.276-18.751-5.287-24.955-8.586-7.047-21.031-6.007-28.332 2.37l-73.366 84.202c-11.924.533-24.194.809-36.668.809-47.564 0-92.206-3.973-125.7-11.187-44.788-9.646-46.8-19.979-46.8-20.079 0-1.634 4.076-7.26 22.691-13.597 17.167-5.845 41.583-10.575 70.606-13.683l-1.596-14.914c-30.109 3.223-55.645 8.201-73.845 14.396-22.109 7.526-32.857 16.619-32.857 27.797 0 14.88 19.182 26.245 58.642 34.743 34.501 7.431 80.264 11.522 128.858 11.522 7.808 0 15.541-.107 23.168-.315l-31.176 35.781c-14.538-1.124-29.649-1.7-44.991-1.7-41.339 0-80.292 4.114-109.682 11.586-33.389 8.487-50.318 20.155-50.318 34.68 0 12.849 13.354 23.513 39.689 31.694l4.451-14.324c-23.05-7.161-29.141-14.493-29.141-17.37 0-1.762 2.193-4.962 8.348-8.661 6.954-4.179 17.558-8.149 30.666-11.481 28.218-7.173 65.857-11.123 105.986-11.123 11.044 0 21.957.31 32.611.908l-53.376 61.259c-10.765-.377-21.312-1.045-31.525-2.007l-1.406 14.934c6.657.627 13.451 1.131 20.347 1.517l-2.662 3.056c-9.078 10.419-19.292 19.899-30.356 28.179l-16.523 12.362c-13.597 10.175-25.951 21.989-36.721 35.115l-96.98 118.204c-8.3 10.115-8.293 24.794.015 34.902l16.199 19.71c5.313 6.467 12.979 10.052 21.125 10.052 1.514 0 3.044-.124 4.578-.376 9.795-1.609 17.741-8.11 21.259-17.393l20.559-54.263 59.499-72.522c9.717-11.843 20.828-22.541 33.025-31.8l14.239-10.811c14.819-11.248 28.096-24.419 39.463-39.146l27.595-35.753c25.696-1.787 49.301-5.247 68.717-10.183 33.389-8.487 50.318-20.155 50.318-34.68 0-18.688-28.446-29.777-56.493-36.169l37.634-48.759c14.743-1.764 28.446-3.983 40.718-6.626 39.46-8.498 58.642-19.863 58.642-34.743 0-12.88-14.387-23.125-43.847-31.158zm-22.311-12.731c1.074-1.233 2.568-1.866 4.075-1.866 1.207 0 2.423.407 3.436 1.237 2.275 1.868 2.649 5.156.851 7.487l-49.57 64.225c-7.27.79-14.786 1.467-22.498 2.032zm-299.291 324.395 9.514-11.597 23.242 19.069-9.515 11.597zm13.729 30.665-9.515 11.597-23.242-19.069 9.515-11.597zm-65.887 106.876c-4.446.735-8.818-.912-11.684-4.397l-16.199-19.71c-3.776-4.595-3.778-11.267-.007-15.865l31.764-38.716 24.875 20.409-5.729 15.121c-4.08-3.626-9.446-5.835-15.321-5.835-12.732 0-23.092 10.359-23.092 23.092h15c0-4.462 3.63-8.092 8.092-8.092s8.092 3.63 8.092 8.092v1.826l-6.127 16.171c-1.599 4.217-5.212 7.172-9.664 7.904zm36.63-71.216-23.242-19.069 10.228-12.467 23.242 19.069zm57.839-70.415-23.244-19.07c3.243-3.819 6.621-7.521 10.146-11.08l23.208 19.041c-3.505 3.577-6.867 7.292-10.11 11.109zm84.132-78.666c-10.559 13.68-22.892 25.914-36.657 36.363l-14.239 10.811c-4.176 3.17-8.219 6.514-12.148 9.987l-23.121-18.969c3.489-3.018 7.072-5.928 10.766-8.692l16.523-12.362c11.911-8.913 22.906-19.119 32.679-30.335l10.588-12.152c4.674.107 9.381.163 14.115.163 7.161 0 14.242-.132 21.222-.375zm143.506-71.451c0 1.762-2.193 4.962-8.348 8.661-6.954 4.179-17.558 8.149-30.666 11.481-15.17 3.856-33.08 6.771-52.619 8.651l39.979-51.798c37.518 7.59 51.654 18.017 51.654 23.005zm-111.765 30.325c-10.78.614-21.902.94-33.236.94-.395 0-.787-.006-1.182-.007l97.963-112.431c8.113-.431 16.054-.982 23.784-1.649zm145.465-136.543c-7.631 1.644-15.845 3.117-24.536 4.415l32.913-42.642c36.664 9.044 38.423 18.055 38.423 18.148 0 .099-2.012 10.433-46.8 20.079z"/></g></g></defs><g fi:class="KUsePattern"><pattern id="pattern_L1_11" width="350" height="350" patternUnits="userSpaceOnUse"><use xlink:href="#L1_11" x="-350" y="-350"/><use xlink:href="#L1_11" x="0" y="-350"/><use xlink:href="#L1_11" x="350" y="-350"/><use xlink:href="#L1_11" x="-350" y="0"/><use xlink:href="#L1_11" x="0" y="0"/><use xlink:href="#L1_11" x="350" y="0"/><use xlink:href="#L1_11" x="-350" y="350"/><use xlink:href="#L1_11" x="0" y="350"/><use xlink:href="#L1_11" x="350" y="350"/></pattern><rect x="0" y="0" width="100%" height="100%" fill="url(#pattern_L1_11)"/></g><g fi:class="KUsePattern"><pattern id="pattern_L1_13" width="350" height="350" patternUnits="userSpaceOnUse"><use xlink:href="#L1_13" x="-350" y="-350"/><use xlink:href="#L1_13" x="0" y="-350"/><use xlink:href="#L1_13" x="350" y="-350"/><use xlink:href="#L1_13" x="-350" y="0"/><use xlink:href="#L1_13" x="0" y="0"/><use xlink:href="#L1_13" x="350" y="0"/><use xlink:href="#L1_13" x="-350" y="350"/><use xlink:href="#L1_13" x="0" y="350"/><use xlink:href="#L1_13" x="350" y="350"/></pattern><rect x="0" y="0" width="100%" height="100%" fill="url(#pattern_L1_13)"/></g><g fi:class="KUsePattern"><pattern id="pattern_L1_14" width="350" height="350" patternUnits="userSpaceOnUse"><use xlink:href="#L1_14" x="-350" y="-350"/><use xlink:href="#L1_14" x="0" y="-350"/><use xlink:href="#L1_14" x="350" y="-350"/><use xlink:href="#L1_14" x="-350" y="0"/><use xlink:href="#L1_14" x="0" y="0"/><use xlink:href="#L1_14" x="350" y="0"/><use xlink:href="#L1_14" x="-350" y="350"/><use xlink:href="#L1_14" x="0" y="350"/><use xlink:href="#L1_14" x="350" y="350"/></pattern><rect x="0" y="0" width="100%" height="100%" fill="url(#pattern_L1_14)"/></g><g fi:class="KUsePattern"><pattern id="pattern_L1_16" width="350" height="350" patternUnits="userSpaceOnUse"><use xlink:href="#L1_16" x="-350" y="-350"/><use xlink:href="#L1_16" x="0" y="-350"/><use xlink:href="#L1_16" x="350" y="-350"/><use xlink:href="#L1_16" x="-350" y="0"/><use xlink:href="#L1_16" x="0" y="0"/><use xlink:href="#L1_16" x="350" y="0"/><use xlink:href="#L1_16" x="-350" y="350"/><use xlink:href="#L1_16" x="0" y="350"/><use xlink:href="#L1_16" x="350" y="350"/></pattern><rect x="0" y="0" width="100%" height="100%" fill="url(#pattern_L1_16)"/></g><g fi:class="KUsePattern"><pattern id="pattern_L1_17" width="350" height="350" patternUnits="userSpaceOnUse"><use xlink:href="#L1_17" x="-350" y="-350"/><use xlink:href="#L1_17" x="0" y="-350"/><use xlink:href="#L1_17" x="350" y="-350"/><use xlink:href="#L1_17" x="-350" y="0"/><use xlink:href="#L1_17" x="0" y="0"/><use xlink:href="#L1_17" x="350" y="0"/><use xlink:href="#L1_17" x="-350" y="350"/><use xlink:href="#L1_17" x="0" y="350"/><use xlink:href="#L1_17" x="350" y="350"/></pattern><rect x="0" y="0" width="100%" height="100%" fill="url(#pattern_L1_17)"/></g></svg>